{
  "accessors": [
    {
      "bufferView": 2,
      "componentType": 5126,
      "count": 9950,
      "max": [
        3.97822904586792,
        4.1552019119262695,
        4.2863922119140625
      ],
      "min": [
        -3.97822904586792,
        -4.158260822296143,
        -4.34551477432251
      ],
      "type": "VEC3"
    },
    {
      "bufferView": 2,
      "byteOffset": 119400,
      "componentType": 5126,
      "count": 9950,
      "max": [
        1.0,
        1.0,
        1.0
      ],
      "min": [
        -1.0,
        -1.0,
        -1.0
      ],
      "type": "VEC3"
    },
    {
      "bufferView": 1,
      "componentType": 5126,
      "count": 9950,
      "max": [
        1.7748630046844482,
        2.4601290225982666
      ],
      "min": [
        -0.2539219856262207,
        0.0
      ],
      "type": "VEC2"
    },
    {
      "bufferView": 0,
      "componentType": 5125,
      "count": 28404,
      "type": "SCALAR"
    },
    {
      "bufferView": 2,
      "byteOffset": 238800,
      "componentType": 5126,
      "count": 804,
      "max": [
        4.326791763305664,
        1.880620002746582,
        1.2577509880065918
      ],
      "min": [
        -4.326791763305664,
        -3.6135940551757813,
        -3.946760892868042
      ],
      "type": "VEC3"
    },
    {
      "bufferView": 2,
      "byteOffset": 248448,
      "componentType": 5126,
      "count": 804,
      "max": [
        0.9929401278495789,
        0.9163824319839478,
        0.8160678744316101
      ],
      "min": [
        -0.9929401278495789,
        -0.993212878704071,
        -0.9999899864196777
      ],
      "type": "VEC3"
    },
    {
      "bufferView": 1,
      "byteOffset": 79600,
      "componentType": 5126,
      "count": 804,
      "max": [
        1.0,
        1.0
      ],
      "min": [
        0.0,
        0.0
      ],
      "type": "VEC2"
    },
    {
      "bufferView": 0,
      "byteOffset": 113616,
      "componentType": 5125,
      "count": 1440,
      "type": "SCALAR"
    },
    {
      "bufferView": 2,
      "byteOffset": 258096,
      "componentType": 5126,
      "count": 2614,
      "max": [
        3.6739308834075928,
        0.5029039978981018,
        1.6366809606552124
      ],
      "min": [
        -3.6739308834075928,
        -3.7724509239196777,
        -1.9033219814300537
      ],
      "type": "VEC3"
    },
    {
      "bufferView": 2,
      "byteOffset": 289464,
      "componentType": 5126,
      "count": 2614,
      "max": [
        0.9989342093467712,
        1.0,
        0.9999995231628418
      ],
      "min": [
        -0.9989342093467712,
        -1.0,
        -0.9999997615814209
      ],
      "type": "VEC3"
    },
    {
      "bufferView": 1,
      "byteOffset": 86032,
      "componentType": 5126,
      "count": 2614,
      "max": [
        1.0,
        1.0
      ],
      "min": [
        0.0,
        0.0
      ],
      "type": "VEC2"
    },
    {
      "bufferView": 0,
      "byteOffset": 119376,
      "componentType": 5125,
      "count": 6480,
      "type": "SCALAR"
    },
    {
      "bufferView": 2,
      "byteOffset": 320832,
      "componentType": 5126,
      "count": 456,
      "max": [
        3.192457914352417,
        3.2637290954589844,
        2.6260299682617188
      ],
      "min": [
        -3.192457914352417,
        -3.156136989593506,
        0.09986399859189987
      ],
      "type": "VEC3"
    },
    {
      "bufferView": 2,
      "byteOffset": 326304,
      "componentType": 5126,
      "count": 456,
      "max": [
        0.9800575971603394,
        0.8775272965431213,
        0.39240407943725586
      ],
      "min": [
        -0.9800575375556946,
        -0.9902073740959167,
        -0.24254097044467926
      ],
      "type": "VEC3"
    },
    {
      "bufferView": 1,
      "byteOffset": 106944,
      "componentType": 5126,
      "count": 456,
      "max": [
        0.875,
        1.0
      ],
      "min": [
        0.0,
        0.125
      ],
      "type": "VEC2"
    },
    {
      "bufferView": 0,
      "byteOffset": 145296,
      "componentType": 5125,
      "count": 780,
      "type": "SCALAR"
    },
    {
      "bufferView": 2,
      "byteOffset": 331776,
      "componentType": 5126,
      "count": 1278,
      "max": [
        2.1145830154418945,
        -2.4974091053009033,
        -0.5045040249824524
      ],
      "min": [
        -2.1145830154418945,
        -3.8189539909362793,
        -4.06138801574707
      ],
      "type": "VEC3"
    },
    {
      "bufferView": 2,
      "byteOffset": 347112,
      "componentType": 5126,
      "count": 1278,
      "max": [
        1.0,
        0.9995003938674927,
        0.9959702491760254
      ],
      "min": [
        -1.0,
        -0.999488353729248,
        -0.9983435273170471
      ],
      "type": "VEC3"
    },
    {
      "bufferView": 1,
      "byteOffset": 110592,
      "componentType": 5126,
      "count": 1278,
      "max": [
        1.0,
        1.0
      ],
      "min": [
        0.0,
        0.0
      ],
      "type": "VEC2"
    },
    {
      "bufferView": 0,
      "byteOffset": 148416,
      "componentType": 5125,
      "count": 4122,
      "type": "SCALAR"
    }
  ],
  "asset": {
    "extras": {
      "author": "sofi& ruth_3d (https://sketchfab.com/sofi-ruth_3d)",
      "license": "CC-BY-SA-4.0 (http://creativecommons.org/licenses/by-sa/4.0/)",
      "source": "https://sketchfab.com/3d-models/stormtrooper-helmet-871adfdf3a204d6e811269f839370042",
      "title": "Stormtrooper Helmet"
    },
    "generator": "Sketchfab-15.19.0",
    "version": "2.0"
  },
  "bufferViews": [
    {
      "buffer": 0,
      "byteLength": 164904,
      "name": "floatBufferViews",
      "target": 34963
    },
    {
      "buffer": 0,
      "byteLength": 120816,
      "byteOffset": 164904,
      "byteStride": 8,
      "name": "floatBufferViews",
      "target": 34962
    },
    {
      "buffer": 0,
      "byteLength": 362448,
      "byteOffset": 285720,
      "byteStride": 12,
      "name": "floatBufferViews",
      "target": 34962
    }
  ],
  "buffers": [
    {
      "byteLength": 648168,
      "uri": "scene.bin"
    }
  ],
  "materials": [
    {
      "doubleSided": true,
      "name": "blinn1SG",
      "pbrMetallicRoughness": {
        "baseColorFactor": [
          0.7828830572043577,
          0.7828830572043577,
          0.7828830572043577,
          1.0
        ],
        "metallicFactor": 0.0,
        "roughnessFactor": 0.3
      }
    },
    {
      "doubleSided": true,
      "name": "blinn2SG",
      "pbrMetallicRoughness": {
        "baseColorFactor": [
          0.043936869914606685,
          0.043936869914606685,
          0.043936869914606685,
          1.0
        ],
        "metallicFactor": 0.0,
        "roughnessFactor": 0.4
      }
    },
    {
      "doubleSided": true,
      "name": "blinn3SG",
      "pbrMetallicRoughness": {
        "baseColorFactor": [
          0.008043016537500681,
          0.008043016537500681,
          0.008043016537500681,
          1.0
        ],
        "metallicFactor": 0.0,
        "roughnessFactor": 0.1
      }
    },
    {
      "doubleSided": true,
      "name": "blinn4SG",
      "pbrMetallicRoughness": {
        "baseColorFactor": [
          0.08125294936358043,
          0.08125294936358043,
          0.08125294936358043,
          1.0
        ],
        "metallicFactor": 0.0,
        "roughnessFactor": 0.2
      }
    }
  ],
  "meshes": [
    {
      "name": "Object_0",
      "primitives": [
        {
          "attributes": {
            "NORMAL": 1,
            "POSITION": 0,
            "TEXCOORD_0": 2
          },
          "indices": 3,
          "material": 0,
          "mode": 4
        }
      ]
    },
    {
      "name": "Object_1",
      "primitives": [
        {
          "attributes": {
            "NORMAL": 5,
            "POSITION": 4,
            "TEXCOORD_0": 6
          },
          "indices": 7,
          "material": 0,
          "mode": 4
        }
      ]
    },
    {
      "name": "Object_2",
      "primitives": [
        {
          "attributes": {
            "NORMAL": 9,
            "POSITION": 8,
            "TEXCOORD_0": 10
          },
          "indices": 11,
          "material": 1,
          "mode": 4
        }
      ]
    },
    {
      "name": "Object_3",
      "primitives": [
        {
          "attributes": {
            "NORMAL": 13,
            "POSITION": 12,
            "TEXCOORD_0": 14
          },
          "indices": 15,
          "material": 2,
          "mode": 4
        }
      ]
    },
    {
      "name": "Object_4",
      "primitives": [
        {
          "attributes": {
            "NORMAL": 17,
            "POSITION": 16,
            "TEXCOORD_0": 18
          },
          "indices": 19,
          "material": 3,
          "mode": 4
        }
      ]
    }
  ],
  "nodes": [
    {
      "children": [
        1
      ],
      "matrix": [
        1.0,
        0.0,
        0.0,
        0.0,
        0.0,
        2.220446049250313e-16,
        -1.0,
        0.0,
        0.0,
        1.0,
        2.220446049250313e-16,
        0.0,
        0.0,
        0.0,
        0.0,
        1.0
      ],
      "name": "Sketchfab_model"
    },
    {
      "children": [
        2,
        3,
        4,
        5,
        6
      ],
      "name": "helmet.obj.cleaner.materialmerger.gles"
    },
    {
      "mesh": 0,
      "name": "Object_2"
    },
    {
      "mesh": 1,
      "name": "Object_3"
    },
    {
      "mesh": 2,
      "name": "Object_4"
    },
    {
      "mesh": 3,
      "name": "Object_5"
    },
    {
      "mesh": 4,
      "name": "Object_6"
    }
  ],
  "scene": 0,
  "scenes": [
    {
      "name": "Sketchfab_Scene",
      "nodes": [
        0
      ]
    }
  ]
}
