<svg xmlns="http://www.w3.org/2000/svg" version="1.1" xmlns:xlink="http://www.w3.org/1999/xlink" xmlns:svgjs="http://svgjs.dev/svgjs" width="1000" height="625" viewBox="0 0 1000 625"><g transform="matrix(1,0,0,1,0,0)"><svg viewBox="0 0 576 360" data-background-color="#ffffff" preserveAspectRatio="xMidYMid meet" height="625" width="1000" xmlns="http://www.w3.org/2000/svg" xmlns:xlink="http://www.w3.org/1999/xlink"><g id="tight-bounds" transform="matrix(1,0,0,1,0,0)"><svg viewBox="0 0 576 360" height="360" width="576"><g><svg></svg></g><g><svg viewBox="0 0 576 360" height="360" width="576"><g><path d="M132.115 90l155.885-90 155.885 90v180l-155.885 90-155.885-90z" fill="#7a26c1" fill-rule="nonzero" stroke="none" stroke-width="1" stroke-linecap="butt" stroke-linejoin="miter" stroke-miterlimit="10" stroke-dasharray="" stroke-dashoffset="0" font-family="none" font-weight="none" font-size="none" text-anchor="none" style="mix-blend-mode: normal" data-fill-palette-color="tertiary"></path></g><g transform="matrix(1,0,0,1,172.8,127.05798816568046)"><svg viewBox="0 0 230.4 105.88402366863907" height="105.88402366863907" width="230.4"><g><svg viewBox="0 0 230.4 105.88402366863907" height="105.88402366863907" width="230.4"><g><svg viewBox="0 0 230.4 105.88402366863907" height="105.88402366863907" width="230.4"><g id="textblocktransform"><svg viewBox="0 0 230.4 105.88402366863907" height="105.88402366863907" width="230.4" id="textblock"><g><svg viewBox="0 0 230.4 105.88402366863907" height="105.88402366863907" width="230.4"><g transform="matrix(1,0,0,1,0,0)"><svg width="230.4" viewBox="0 -34.95 76.05 34.95" height="105.88402366863907" data-palette-color="#ffffff"><path d="M18.4-2.15L27.8-2.15 27.8 0 0 0 0-2.15 5.95-2.15Q3.5-3.25 1.3-5.55L1.3-5.55 5.35-11.3Q8.5-7.9 11.95-7.9L11.95-7.9Q13.6-7.9 14.78-9.2 15.95-10.5 15.95-13L15.95-13 15.95-28.25 5.6-28.25 5.6-34.95 23.8-34.95 23.8-13.15Q23.8-5.2 18.4-2.15L18.4-2.15ZM63.4 0L63.4-22 53.95-2.9 49.3-2.9 39.9-22 39.9 0 27.25 0 27.25-2.15 32.1-2.15 32.1-34.95 42.65-34.95 51.65-15.75 60.7-34.95 71.2-34.95 71.2-2.15 76.05-2.15 76.05 0 63.4 0Z" opacity="1" transform="matrix(1,0,0,1,0,0)" fill="#ffffff" class="undefined-text-0" data-fill-palette-color="quaternary" id="text-0"></path></svg></g></svg></g></svg></g></svg></g></svg></g></svg></g></svg></g><defs></defs></svg><rect width="576" height="360" fill="none" stroke="none" visibility="hidden"></rect></g></svg></g></svg>